<svg version="1.1" id="Layer_1" xmlns="http://www.w3.org/2000/svg" xmlns:xlink="http://www.w3.org/1999/xlink" x="0px" y="0px"
	 width="100%" viewBox="0 0 500 500" enable-background="new 0 0 500 500" xml:space="preserve">
<path fill="#FFFFFF" opacity="1.000000" stroke="none" 
	d="
M272.000000,501.000000 
	C181.333359,501.000000 91.166710,501.000000 1.000048,501.000000 
	C1.000032,334.333405 1.000032,167.666794 1.000016,1.000138 
	C167.666565,1.000092 334.333130,1.000092 500.999756,1.000046 
	C500.999847,167.666519 500.999847,334.333038 500.999939,500.999786 
	C424.833344,501.000000 348.666656,501.000000 272.000000,501.000000 
M355.097290,213.715256 
	C351.266174,213.704208 347.405762,213.411636 343.616821,213.805878 
	C341.835205,213.991257 340.191040,215.497818 337.795929,216.772064 
	C323.601135,208.011703 311.882904,210.625168 300.384979,226.139923 
	C295.951813,217.458572 288.544769,213.302612 279.195679,212.278046 
	C270.054199,211.276215 262.076355,214.302841 255.150787,220.685318 
	C254.872833,220.295471 254.594894,219.905624 254.316956,219.515793 
	C254.928513,217.762268 255.540054,216.008743 256.351501,213.682083 
	C250.935760,213.682083 245.799759,213.869324 240.686340,213.610413 
	C237.714844,213.459961 236.247772,214.502167 235.080658,217.200409 
	C231.945587,224.448227 228.492264,231.558365 224.854050,239.393555 
	C220.592758,231.560760 216.655029,224.645554 213.059586,217.556732 
	C211.597763,214.674591 209.948166,213.388077 206.561188,213.591400 
	C200.987335,213.926010 195.378738,213.682129 189.342896,213.682129 
	C189.342896,207.027283 189.342896,201.120270 189.342896,195.145813 
	C183.584229,195.145813 178.288071,195.145813 172.466919,195.055771 
	C172.391037,195.363327 172.315155,195.670868 172.071716,196.903931 
	C172.071716,202.343399 172.071716,207.782883 172.071716,213.448730 
	C169.420090,213.633041 167.204407,213.787048 165.054581,213.936478 
	C164.900970,216.213272 164.776169,218.062927 164.616394,220.430847 
	C159.829788,214.984390 154.113876,213.059753 147.881012,212.235840 
	C141.383942,211.376999 136.129898,214.299805 131.136093,218.540756 
	C130.879791,216.494965 130.722351,215.238235 130.575211,214.063736 
	C124.707275,214.063736 119.177536,214.063736 113.652321,214.063736 
	C113.652321,218.722763 113.652321,223.000351 112.827362,227.153809 
	C112.558228,227.083847 112.289093,227.013870 112.005836,226.237579 
	C108.397156,218.582352 102.188652,214.481857 94.050545,212.801422 
	C83.210526,210.563049 74.146271,213.855621 65.892418,220.897293 
	C65.752914,220.772491 65.613403,220.647705 65.731956,219.797455 
	C66.371315,218.326981 67.010681,216.856522 67.721283,215.222214 
	C57.646362,209.657089 49.141975,211.963150 41.441879,220.274185 
	C41.222340,217.574966 41.069500,215.695801 40.925091,213.920288 
	C35.075062,213.920288 29.635277,213.920288 24.235308,213.920288 
	C24.235308,230.706314 24.235308,247.249908 24.235308,263.793732 
	C29.965057,263.793732 35.391064,263.793732 41.200966,263.793732 
	C41.200966,255.319229 41.056049,247.045685 41.240578,238.779510 
	C41.436069,230.022385 47.091072,225.784576 55.565155,227.780914 
	C57.005306,228.120193 58.402981,228.639771 60.307392,229.667969 
	C60.782829,229.649017 61.258266,229.630081 61.108791,230.291504 
	C57.755741,243.577164 61.712818,254.241852 72.379204,261.166168 
	C79.096687,265.526947 86.443329,265.906586 94.022072,264.943481 
	C101.722122,263.964966 107.871002,260.092804 113.388199,253.116547 
	C113.388199,257.451691 113.388199,260.529846 113.388199,263.728149 
	C119.381935,263.728149 124.946487,263.728149 130.849823,263.728149 
	C130.849823,254.658524 130.806107,245.859955 130.864105,237.062057 
	C130.907883,230.420303 135.034775,225.888947 140.945801,225.817719 
	C146.676788,225.748657 150.008133,229.821854 150.075211,237.037888 
	C150.155716,245.697739 150.206268,254.357880 150.128586,263.504639 
	C150.413376,263.599274 150.698151,263.693909 151.901703,263.988403 
	C157.001022,263.988403 162.100357,263.988403 167.445740,263.988403 
	C167.445740,251.373932 167.445740,239.306915 167.445740,227.225357 
	C169.092041,227.225357 170.470276,227.225357 172.108917,227.225357 
	C172.108917,234.174927 171.890732,240.832886 172.169937,247.469940 
	C172.452393,254.184326 174.085678,260.659271 180.919113,263.672302 
	C187.986984,266.788696 195.054810,265.734283 202.046295,262.293121 
	C200.519836,257.449097 199.140274,253.071213 197.762039,248.697510 
	C191.474976,250.640289 189.774506,249.610870 189.521500,243.476562 
	C189.297699,238.050583 189.474609,232.608078 189.474609,227.494614 
	C196.022873,225.418701 199.476974,227.822235 202.030289,233.353638 
	C204.947479,239.673264 208.522232,245.723450 212.219971,251.635071 
	C214.241623,254.867126 214.254990,257.313202 212.376343,260.682495 
	C207.228531,269.915009 202.566330,279.418274 197.331650,289.550323 
	C203.275574,289.550323 208.408340,289.361206 213.518097,289.622284 
	C216.511139,289.775208 217.870789,288.556641 219.173798,286.012817 
	C227.734299,269.300598 236.463089,252.674438 245.184326,236.045044 
	C245.919189,234.643829 247.001358,233.424759 247.975464,232.025467 
	C247.975464,232.025467 247.879807,232.078644 247.972916,232.987259 
	C247.665482,241.484253 248.756882,249.388290 254.700500,256.279846 
	C265.520935,268.826019 290.673401,269.048096 301.579620,253.174744 
	C305.811493,259.560425 311.251740,264.108521 319.143341,265.129333 
	C326.765594,266.115326 333.545166,264.299805 339.559296,258.557831 
	C339.794861,260.893402 339.947083,262.402863 340.089355,263.813568 
	C345.707062,263.813568 350.858551,263.813568 356.527893,263.904022 
	C356.613647,263.609009 356.699402,263.313995 356.949219,262.307037 
	C357.022980,261.662323 357.096771,261.017609 357.197571,260.136932 
	C366.717529,266.063721 376.765961,266.613312 387.077972,263.939484 
	C394.226868,262.085815 398.226318,257.355438 398.942352,250.750107 
	C399.741730,243.376129 397.243011,238.494339 390.237976,234.916183 
	C386.865112,233.193329 383.015228,232.412842 379.612213,230.736847 
	C378.113922,229.998917 377.191071,228.092621 376.006958,226.716812 
	C377.652130,225.898499 379.375244,224.272705 380.926941,224.422531 
	C384.664429,224.783386 388.321655,225.975418 392.550079,226.998245 
	C392.675964,226.667664 392.801849,226.337082 393.430603,225.505066 
	C394.039917,224.576599 394.649200,223.648148 395.317596,222.629669 
	C395.719086,223.114151 395.951874,223.323380 396.097870,223.581650 
	C399.940704,230.380035 403.157135,237.639435 407.761230,243.874420 
	C413.977661,252.292953 414.334198,259.705505 408.243713,268.395264 
	C403.860901,274.648529 401.003632,281.971008 397.088470,289.546692 
	C402.989197,289.546692 407.949127,289.354706 412.884918,289.616638 
	C415.988342,289.781311 417.603973,288.664215 419.015259,285.918854 
	C430.026276,264.499176 441.197418,243.161789 452.321869,221.800415 
	C453.604706,219.337036 454.904663,216.882584 456.586548,213.682068 
	C452.394409,213.682068 448.910645,214.078644 445.552246,213.598358 
	C438.848846,212.639709 434.932159,214.856323 432.744293,221.585953 
	C430.799286,227.568665 427.518860,233.117218 424.585876,239.373505 
	C420.325928,231.540558 416.291534,224.468231 412.626740,217.209305 
	C411.210571,214.404266 409.468781,213.646561 406.442688,213.583389 
	C399.313171,213.434540 392.196320,212.460892 385.070740,212.417969 
	C380.150635,212.388336 375.082397,212.800797 370.336121,214.015213 
	C364.037354,215.626877 360.080505,220.049911 359.357452,226.767502 
	C358.640625,233.427216 362.028503,237.916946 367.567078,240.913635 
	C370.911163,242.723038 374.595123,243.908188 377.920197,245.746719 
	C379.148560,246.425919 380.795624,248.624252 380.477234,249.336853 
	C379.867920,250.700485 378.074768,252.175064 376.613556,252.362640 
	C374.606323,252.620316 372.335999,252.017548 370.387115,251.252090 
	C367.703186,250.197891 365.214233,248.647263 362.467987,247.218903 
	C360.909424,250.090836 359.493683,252.699539 357.387512,255.561478 
	C357.210297,255.392090 357.033051,255.222717 356.953766,254.113861 
	C356.897461,241.071487 356.841187,228.029114 356.892883,214.410355 
	C356.594879,214.268906 356.296906,214.127457 355.097290,213.715256 
M478.001282,243.155685 
	C471.267517,245.682175 468.349060,249.738892 469.011932,255.651093 
	C469.536102,260.326294 473.285950,264.341949 477.880829,265.148682 
	C484.568176,266.322784 490.503113,262.098572 491.174255,255.687057 
	C491.955566,248.223190 487.112854,243.279877 478.001282,243.155685 
z"/>
<path fill="#020202" opacity="1.000000" stroke="none" 
	d="
M356.010071,263.813568 
	C350.858551,263.813568 345.707062,263.813568 340.089355,263.813568 
	C339.947083,262.402863 339.794861,260.893402 339.559296,258.557831 
	C333.545166,264.299805 326.765594,266.115326 319.143341,265.129333 
	C311.251740,264.108521 305.811493,259.560425 301.579620,253.174744 
	C290.673401,269.048096 265.520935,268.826019 254.700500,256.279846 
	C248.756882,249.388290 247.665482,241.484253 248.279938,232.466400 
	C249.062851,230.966232 249.538727,229.986923 250.218521,228.881882 
	C250.406281,228.402679 250.390121,228.049240 250.373962,227.695786 
	C250.244858,228.125198 250.115768,228.554611 249.635269,229.048203 
	C248.829987,230.115280 248.376083,231.118179 247.922180,232.121078 
	C247.001358,233.424759 245.919189,234.643829 245.184326,236.045044 
	C236.463089,252.674438 227.734299,269.300598 219.173798,286.012817 
	C217.870789,288.556641 216.511139,289.775208 213.518097,289.622284 
	C208.408340,289.361206 203.275574,289.550323 197.331650,289.550323 
	C202.566330,279.418274 207.228531,269.915009 212.376343,260.682495 
	C214.254990,257.313202 214.241623,254.867126 212.219971,251.635071 
	C208.522232,245.723450 204.947479,239.673264 202.030289,233.353638 
	C199.476974,227.822235 196.022873,225.418701 189.474609,227.494614 
	C189.474609,232.608078 189.297699,238.050583 189.521500,243.476562 
	C189.774506,249.610870 191.474976,250.640289 197.762039,248.697510 
	C199.140274,253.071213 200.519836,257.449097 202.046295,262.293121 
	C195.054810,265.734283 187.986984,266.788696 180.919113,263.672302 
	C174.085678,260.659271 172.452393,254.184326 172.169937,247.469940 
	C171.890732,240.832886 172.108917,234.174927 172.108917,227.225357 
	C170.470276,227.225357 169.092041,227.225357 167.445740,227.225357 
	C167.445740,239.306915 167.445740,251.373932 167.445740,263.988403 
	C162.100357,263.988403 157.001022,263.988403 151.363647,263.726288 
	C150.685120,263.259613 150.499847,263.110870 150.269791,263.017883 
	C150.206268,254.357880 150.155716,245.697739 150.075211,237.037888 
	C150.008133,229.821854 146.676788,225.748657 140.945801,225.817719 
	C135.034775,225.888947 130.907883,230.420303 130.864105,237.062057 
	C130.806107,245.859955 130.849823,254.658524 130.849823,263.728149 
	C124.946487,263.728149 119.381935,263.728149 113.388199,263.728149 
	C113.388199,260.529846 113.388199,257.451691 113.388199,253.116547 
	C107.871002,260.092804 101.722122,263.964966 94.022072,264.943481 
	C86.443329,265.906586 79.096687,265.526947 72.379204,261.166168 
	C61.712818,254.241852 57.755741,243.577164 61.500679,229.754608 
	C61.201805,229.170502 60.511044,229.123291 59.820278,229.076080 
	C58.402981,228.639771 57.005306,228.120193 55.565155,227.780914 
	C47.091072,225.784576 41.436069,230.022385 41.240578,238.779510 
	C41.056049,247.045685 41.200966,255.319229 41.200966,263.793732 
	C35.391064,263.793732 29.965057,263.793732 24.235308,263.793732 
	C24.235308,247.249908 24.235308,230.706314 24.235308,213.920288 
	C29.635277,213.920288 35.075062,213.920288 40.925091,213.920288 
	C41.069500,215.695801 41.222340,217.574966 41.441879,220.274185 
	C49.141975,211.963150 57.646362,209.657089 67.721283,215.222214 
	C67.010681,216.856522 66.371315,218.326981 65.416496,220.366043 
	C65.051399,221.294647 65.001762,221.654663 64.667313,222.152390 
	C63.903767,223.181549 63.425037,224.072998 62.749939,225.100983 
	C62.570438,225.599564 62.587315,225.961609 62.604187,226.323654 
	C62.757626,225.903946 62.911064,225.484238 63.396370,225.012482 
	C64.491028,223.991608 65.253822,223.022766 66.117996,221.871735 
	C66.219383,221.689529 66.302719,221.280899 66.302719,221.280899 
	C74.146271,213.855621 83.210526,210.563049 94.050545,212.801422 
	C102.188652,214.481857 108.397156,218.582352 112.033325,226.935074 
	C112.489220,228.782227 112.917641,229.931900 113.346062,231.081558 
	C113.585381,231.021164 113.824699,230.960770 114.064018,230.900375 
	C113.926788,229.692902 113.789551,228.485413 113.652321,227.277939 
	C113.652321,223.000351 113.652321,218.722763 113.652321,214.063736 
	C119.177536,214.063736 124.707275,214.063736 130.575211,214.063736 
	C130.722351,215.238235 130.879791,216.494965 131.136093,218.540756 
	C136.129898,214.299805 141.383942,211.376999 147.881012,212.235840 
	C154.113876,213.059753 159.829788,214.984390 164.616394,220.430847 
	C164.776169,218.062927 164.900970,216.213272 165.054581,213.936478 
	C167.204407,213.787048 169.420090,213.633041 172.071716,213.448730 
	C172.071716,207.782883 172.071716,202.343399 172.322235,196.343964 
	C172.775635,195.612778 172.915344,195.400040 172.991898,195.145813 
	C178.288071,195.145813 183.584229,195.145813 189.342896,195.145813 
	C189.342896,201.120270 189.342896,207.027283 189.342896,213.682129 
	C195.378738,213.682129 200.987335,213.926010 206.561188,213.591400 
	C209.948166,213.388077 211.597763,214.674591 213.059586,217.556732 
	C216.655029,224.645554 220.592758,231.560760 224.854050,239.393555 
	C228.492264,231.558365 231.945587,224.448227 235.080658,217.200409 
	C236.247772,214.502167 237.714844,213.459961 240.686340,213.610413 
	C245.799759,213.869324 250.935760,213.682083 256.351501,213.682083 
	C255.540054,216.008743 254.928513,217.762268 254.316956,219.515793 
	C254.594894,219.905624 254.872833,220.295471 255.150787,220.685318 
	C262.076355,214.302841 270.054199,211.276215 279.195679,212.278046 
	C288.544769,213.302612 295.951813,217.458572 300.384979,226.139923 
	C311.882904,210.625168 323.601135,208.011703 337.795929,216.772064 
	C340.191040,215.497818 341.835205,213.991257 343.616821,213.805878 
	C347.405762,213.411636 351.266174,213.704208 355.625305,214.055573 
	C356.301727,214.659210 356.512238,214.856155 356.784882,214.986740 
	C356.841187,228.029114 356.897461,241.071487 356.707397,254.749878 
	C356.666260,255.805283 356.871460,256.224701 357.076660,256.644104 
	C357.410431,256.198822 357.744202,255.753525 358.077972,255.308243 
	C359.493683,252.699539 360.909424,250.090836 362.467987,247.218903 
	C365.214233,248.647263 367.703186,250.197891 370.387115,251.252090 
	C372.335999,252.017548 374.606323,252.620316 376.613556,252.362640 
	C378.074768,252.175064 379.867920,250.700485 380.477234,249.336853 
	C380.795624,248.624252 379.148560,246.425919 377.920197,245.746719 
	C374.595123,243.908188 370.911163,242.723038 367.567078,240.913635 
	C362.028503,237.916946 358.640625,233.427216 359.357452,226.767502 
	C360.080505,220.049911 364.037354,215.626877 370.336121,214.015213 
	C375.082397,212.800797 380.150635,212.388336 385.070740,212.417969 
	C392.196320,212.460892 399.313171,213.434540 406.442688,213.583389 
	C409.468781,213.646561 411.210571,214.404266 412.626740,217.209305 
	C416.291534,224.468231 420.325928,231.540558 424.585876,239.373505 
	C427.518860,233.117218 430.799286,227.568665 432.744293,221.585953 
	C434.932159,214.856323 438.848846,212.639709 445.552246,213.598358 
	C448.910645,214.078644 452.394409,213.682068 456.586548,213.682068 
	C454.904663,216.882584 453.604706,219.337036 452.321869,221.800415 
	C441.197418,243.161789 430.026276,264.499176 419.015259,285.918854 
	C417.603973,288.664215 415.988342,289.781311 412.884918,289.616638 
	C407.949127,289.354706 402.989197,289.546692 397.088470,289.546692 
	C401.003632,281.971008 403.860901,274.648529 408.243713,268.395264 
	C414.334198,259.705505 413.977661,252.292953 407.761230,243.874420 
	C403.157135,237.639435 399.940704,230.380035 396.097870,223.581650 
	C395.951874,223.323380 395.719086,223.114151 395.317596,222.629669 
	C394.649200,223.648148 394.039917,224.576599 392.985352,225.842926 
	C392.294830,226.341904 392.118530,226.559036 392.011261,226.832214 
	C388.321655,225.975418 384.664429,224.783386 380.926941,224.422531 
	C379.375244,224.272705 377.652130,225.898499 376.006958,226.716812 
	C377.191071,228.092621 378.113922,229.998917 379.612213,230.736847 
	C383.015228,232.412842 386.865112,233.193329 390.237976,234.916183 
	C397.243011,238.494339 399.741730,243.376129 398.942352,250.750107 
	C398.226318,257.355438 394.226868,262.085815 387.077972,263.939484 
	C376.765961,266.613312 366.717529,266.063721 357.197571,260.136932 
	C357.096771,261.017609 357.022980,261.662323 356.699860,262.754211 
	C356.243988,263.362488 356.097198,263.566559 356.010071,263.813568 
M255.500610,220.247299 
	C254.646896,220.503754 253.793198,220.760193 252.442215,221.364899 
	C252.164719,222.128983 251.887238,222.893066 251.609756,223.657150 
	C251.957474,223.866150 252.305191,224.075150 252.652908,224.284149 
	C253.446457,223.227829 254.240021,222.171509 255.500610,220.247299 
M321.010132,229.340515 
	C320.024780,230.456161 318.851593,231.457199 318.088196,232.708267 
	C315.463531,237.009644 316.182098,243.571396 319.522736,247.127411 
	C322.944641,250.769958 329.143158,251.724289 333.814575,249.327820 
	C338.435852,246.957077 340.895935,241.505142 339.736694,236.203583 
	C337.968323,228.116180 330.042694,224.923355 321.010132,229.340515 
M83.674713,241.119110 
	C81.863815,241.119110 80.052917,241.119110 78.244667,241.119110 
	C78.212036,249.987122 88.308609,255.399994 95.911560,249.850647 
	C101.154114,246.024124 104.597458,247.380829 108.925041,249.991562 
	C110.133423,250.720551 111.523781,251.147919 113.131821,251.844025 
	C113.131821,248.075928 113.131821,244.832123 113.131821,241.119110 
	C103.480957,241.119110 94.056808,241.119110 83.674713,241.119110 
M299.990173,250.203323 
	C299.238434,247.202103 298.486725,244.200897 297.780823,241.382736 
	C287.062012,241.382736 276.673737,241.382736 266.266846,241.382736 
	C267.318390,252.740646 277.201508,254.734650 289.662476,246.468201 
	C293.041168,247.975845 296.353333,249.453812 299.990173,250.203323 
M86.073906,223.582535 
	C81.718132,224.327728 78.863159,226.483780 78.537651,231.407745 
	C84.866341,231.407745 90.900177,231.407745 96.985283,231.407745 
	C95.907646,225.367996 93.886810,223.838379 86.073906,223.582535 
M268.670197,226.355499 
	C267.960388,227.899048 267.250580,229.442596 266.340088,231.422607 
	C273.185333,231.422607 279.210876,231.422607 285.295776,231.422607 
	C283.656097,223.337845 276.915192,221.100250 268.670197,226.355499 
z"/>
<path fill="#040404" opacity="1.000000" stroke="none" 
	d="
M478.404785,243.109924 
	C487.112854,243.279877 491.955566,248.223190 491.174255,255.687057 
	C490.503113,262.098572 484.568176,266.322784 477.880829,265.148682 
	C473.285950,264.341949 469.536102,260.326294 469.011932,255.651093 
	C468.349060,249.738892 471.267517,245.682175 478.404785,243.109924 
z"/>
<path fill="#050505" opacity="1.000000" stroke="none" 
	d="
M113.239838,227.215881 
	C113.789551,228.485413 113.926788,229.692902 114.064018,230.900375 
	C113.824699,230.960770 113.585381,231.021164 113.346062,231.081558 
	C112.917641,229.931900 112.489220,228.782227 112.040375,227.288239 
	C112.289093,227.013870 112.558228,227.083847 113.239838,227.215881 
z"/>
<path fill="#040404" opacity="1.000000" stroke="none" 
	d="
M357.732727,255.434860 
	C357.744202,255.753525 357.410431,256.198822 357.076660,256.644104 
	C356.871460,256.224701 356.666260,255.805283 356.658447,255.219604 
	C357.033051,255.222717 357.210297,255.392090 357.732727,255.434860 
z"/>
<path fill="#050505" opacity="1.000000" stroke="none" 
	d="
M60.063835,229.372025 
	C60.511044,229.123291 61.201805,229.170502 61.813137,229.414429 
	C61.258266,229.630081 60.782829,229.649017 60.063835,229.372025 
z"/>
<path fill="#050505" opacity="1.000000" stroke="none" 
	d="
M150.199188,263.261261 
	C150.499847,263.110870 150.685120,263.259613 150.904266,263.626343 
	C150.698151,263.693909 150.413376,263.599274 150.199188,263.261261 
z"/>
<path fill="#040404" opacity="1.000000" stroke="none" 
	d="
M356.268982,263.858795 
	C356.097198,263.566559 356.243988,263.362488 356.617828,263.110168 
	C356.699402,263.313995 356.613647,263.609009 356.268982,263.858795 
z"/>
<path fill="#040404" opacity="1.000000" stroke="none" 
	d="
M392.280670,226.915222 
	C392.118530,226.559036 392.294830,226.341904 392.733917,226.093643 
	C392.801849,226.337082 392.675964,226.667664 392.280670,226.915222 
z"/>
<path fill="#040404" opacity="1.000000" stroke="none" 
	d="
M356.838867,214.698547 
	C356.512238,214.856155 356.301727,214.659210 356.076111,214.190948 
	C356.296906,214.127457 356.594879,214.268906 356.838867,214.698547 
z"/>
<path fill="#050505" opacity="1.000000" stroke="none" 
	d="
M172.729401,195.100800 
	C172.915344,195.400040 172.775635,195.612778 172.406006,195.881210 
	C172.315155,195.670868 172.391037,195.363327 172.729401,195.100800 
z"/>
<path fill="#F9F9F9" opacity="1.000000" stroke="none" 
	d="
M321.328857,229.128448 
	C330.042694,224.923355 337.968323,228.116180 339.736694,236.203583 
	C340.895935,241.505142 338.435852,246.957077 333.814575,249.327820 
	C329.143158,251.724289 322.944641,250.769958 319.522736,247.127411 
	C316.182098,243.571396 315.463531,237.009644 318.088196,232.708267 
	C318.851593,231.457199 320.024780,230.456161 321.328857,229.128448 
z"/>
<path fill="#F4F4F4" opacity="1.000000" stroke="none" 
	d="
M84.153687,241.119110 
	C94.056808,241.119110 103.480957,241.119110 113.131821,241.119110 
	C113.131821,244.832123 113.131821,248.075928 113.131821,251.844025 
	C111.523781,251.147919 110.133423,250.720551 108.925041,249.991562 
	C104.597458,247.380829 101.154114,246.024124 95.911560,249.850647 
	C88.308609,255.399994 78.212036,249.987122 78.244667,241.119110 
	C80.052917,241.119110 81.863815,241.119110 84.153687,241.119110 
z"/>
<path fill="#F1F1F1" opacity="1.000000" stroke="none" 
	d="
M299.827820,250.567535 
	C296.353333,249.453812 293.041168,247.975845 289.662476,246.468201 
	C277.201508,254.734650 267.318390,252.740646 266.266846,241.382736 
	C276.673737,241.382736 287.062012,241.382736 297.780823,241.382736 
	C298.486725,244.200897 299.238434,247.202103 299.827820,250.567535 
z"/>
<path fill="#EAEAEA" opacity="1.000000" stroke="none" 
	d="
M86.458130,223.517349 
	C93.886810,223.838379 95.907646,225.367996 96.985283,231.407745 
	C90.900177,231.407745 84.866341,231.407745 78.537651,231.407745 
	C78.863159,226.483780 81.718132,224.327728 86.458130,223.517349 
z"/>
<path fill="#EAEAEA" opacity="1.000000" stroke="none" 
	d="
M268.941925,226.076691 
	C276.915192,221.100250 283.656097,223.337845 285.295776,231.422607 
	C279.210876,231.422607 273.185333,231.422607 266.340088,231.422607 
	C267.250580,229.442596 267.960388,227.899048 268.941925,226.076691 
z"/>
<path fill="#050505" opacity="1.000000" stroke="none" 
	d="
M255.033585,221.115189 
	C254.240021,222.171509 253.446457,223.227829 252.652908,224.284149 
	C252.305191,224.075150 251.957474,223.866150 251.609756,223.657150 
	C251.887238,222.893066 252.164719,222.128983 253.038605,221.239990 
	C254.101181,221.115097 254.567383,221.115143 255.033585,221.115189 
z"/>
<path fill="#050505" opacity="1.000000" stroke="none" 
	d="
M66.016609,222.053925 
	C65.253822,223.022766 64.491028,223.991608 63.368038,224.986023 
	C63.007843,225.011627 62.946320,224.964462 62.946316,224.964462 
	C63.425037,224.072998 63.903767,223.181549 64.933807,222.152161 
	C65.662277,222.027451 65.839447,222.040695 66.016609,222.053925 
z"/>
<path fill="#050505" opacity="1.000000" stroke="none" 
	d="
M247.948822,232.073273 
	C248.376083,231.118179 248.829987,230.115280 249.641449,229.055573 
	C249.999023,228.998749 250.014618,229.007629 250.014618,229.007629 
	C249.538727,229.986923 249.062851,230.966232 248.233398,232.012085 
	C247.879807,232.078644 247.975464,232.025467 247.948822,232.073273 
z"/>
<path fill="#FFFFFF" opacity="1.000000" stroke="none" 
	d="
M255.267090,220.681244 
	C254.567383,221.115143 254.101181,221.115097 253.287231,221.065857 
	C253.793198,220.760193 254.646896,220.503754 255.267090,220.681244 
z"/>
<path fill="#050505" opacity="1.000000" stroke="none" 
	d="
M63.036175,225.038086 
	C62.911064,225.484238 62.757626,225.903946 62.604187,226.323654 
	C62.587315,225.961609 62.570438,225.599564 62.749939,225.100983 
	C62.946320,224.964462 63.007843,225.011627 63.036175,225.038086 
z"/>
<path fill="#040404" opacity="1.000000" stroke="none" 
	d="
M249.992844,228.991394 
	C250.115768,228.554611 250.244858,228.125198 250.373962,227.695786 
	C250.390121,228.049240 250.406281,228.402679 250.218536,228.881882 
	C250.014618,229.007629 249.999023,228.998749 249.992844,228.991394 
z"/>
<path fill="#FFFFFF" opacity="1.000000" stroke="none" 
	d="
M66.117996,221.871735 
	C65.839447,222.040695 65.662277,222.027451 65.218620,222.014435 
	C65.001762,221.654663 65.051399,221.294647 65.287460,220.728760 
	C65.613403,220.647705 65.752914,220.772491 66.097565,221.089096 
	C66.302719,221.280899 66.219383,221.689529 66.117996,221.871735 
z"/>
</svg>